<?xml version="1.0" encoding="UTF-8" standalone="no"?>
<svg
   xmlns:dc="http://purl.org/dc/elements/1.1/"
   xmlns:cc="http://creativecommons.org/ns#"
   xmlns:rdf="http://www.w3.org/1999/02/22-rdf-syntax-ns#"
   xmlns:svg="http://www.w3.org/2000/svg"
   xmlns="http://www.w3.org/2000/svg"
   xmlns:sodipodi="http://sodipodi.sourceforge.net/DTD/sodipodi-0.dtd"
   xmlns:inkscape="http://www.inkscape.org/namespaces/inkscape"
   width="460"
   height="460"
   viewBox="0 0 121.70832 121.70834"
   version="1.1"
   id="svg8"
   inkscape:version="1.0.2-2 (e86c870879, 2021-01-15)"
   sodipodi:docname="bulb_info.svg">
  <defs
     id="defs2">
    <rect
       x="-10.233453"
       y="126.59798"
       width="7.2162771"
       height="12.561668"
       id="rect870" />
    <pattern
       id="EMFhbasepattern"
       patternUnits="userSpaceOnUse"
       width="6"
       height="6"
       x="0"
       y="0" />
  </defs>
  <sodipodi:namedview
     id="base"
     pagecolor="#ffffff"
     bordercolor="#666666"
     borderopacity="1.0"
     inkscape:pageopacity="0.0"
     inkscape:pageshadow="2"
     inkscape:zoom="1.4"
     inkscape:cx="374.83207"
     inkscape:cy="189.11795"
     inkscape:document-units="mm"
     inkscape:current-layer="layer1"
     inkscape:document-rotation="0"
     showgrid="false"
     inkscape:window-width="1920"
     inkscape:window-height="1137"
     inkscape:window-x="1912"
     inkscape:window-y="-8"
     inkscape:window-maximized="1"
     units="px"
     width="500mm" />
  <metadata
     id="metadata5">
    <rdf:RDF>
      <cc:Work
         rdf:about="">
        <dc:format>image/svg+xml</dc:format>
        <dc:type
           rdf:resource="http://purl.org/dc/dcmitype/StillImage" />
        <dc:title></dc:title>
      </cc:Work>
    </rdf:RDF>
  </metadata>
  <g
     inkscape:label="Warstwa 1"
     inkscape:groupmode="layer"
     id="layer1">
    <path
       style="fill:#ffffff;fill-opacity:1;stroke:none;stroke-width:0.535715;stroke-linecap:square;stroke-opacity:1;paint-order:stroke markers fill"
       d="m 91.619113,23.822759 3.488739,1.073249 10.718368,9.551937 -2.06504,4.339769 -10.542792,-8.904145 z"
       id="path908-2"
       sodipodi:nodetypes="cccccc" />
    <path
       style="fill:#ffffff;fill-opacity:1;stroke:none;stroke-width:0.535715;stroke-linecap:square;stroke-opacity:1;paint-order:stroke markers fill"
       d="m 85.184185,60.787633 11.993211,-0.296916 -0.66817,8.890479 -4.994347,4.009041 -5.629111,-4.510172 z"
       id="path908"
       sodipodi:nodetypes="cccccc" />
    <rect
       style="fill:#ffffff;fill-opacity:1;stroke:#494949;stroke-width:1.5;stroke-linecap:square;stroke-linejoin:miter;stroke-miterlimit:4;stroke-dasharray:none;stroke-opacity:1;paint-order:stroke markers fill"
       id="rect1055"
       width="54.522987"
       height="13.096202"
       x="11.376321"
       y="29.636791" />
    <rect
       style="fill:#ffffff;fill-opacity:1;stroke:#4d4d4d;stroke-width:0.499999;stroke-linecap:square;stroke-linejoin:round;stroke-miterlimit:4;stroke-dasharray:none;paint-order:stroke markers fill"
       id="rect981"
       width="23.791531"
       height="9.5166092"
       x="79.564461"
       y="80.45565" />
    <g
       id="g911"
       transform="translate(12.979937,-31.060248)">
      <g
         id="g846"
         transform="translate(-21.544643,-8.6934524)">
        <path
           style="fill:#ffee58;fill-opacity:1;stroke-width:0.26435"
           d="m 93.887279,98.910901 c 0,0 -10.803009,-15.341791 -9.173789,-21.944843 0.27542,-7.087869 7.64438,-13.772947 14.98101,-13.767086 8.76722,-0.434215 15.283,7.017882 16.41462,14.202993 -0.41254,10.003974 -4.95976,13.043513 -9.73751,21.225168 -5.48539,1.02327 -8.882553,0.810062 -12.484331,0.283768 z m 18.315141,-21.79994 c 0.61897,-0.331257 0.66329,-1.309193 0.10801,-2.382979 -0.30358,-0.587066 -0.58973,-0.779924 -1.15721,-0.779924 -1.00966,0 -1.45501,0.585073 -1.24492,1.6355 0.30451,1.522555 1.19517,2.115547 2.29412,1.527403 z m -2.02828,-4.374099 c 0.43116,-1.123592 0.13399,-1.664046 -2.04356,-3.716595 -1.21303,-1.143393 -2.88105,-2.415409 -3.70978,-2.82904 -1.42648,-0.711977 -1.5401,-0.729055 -2.15777,-0.324344 -0.76797,0.503195 -0.85719,1.47443 -0.18938,2.061523 0.25444,0.223683 0.94935,0.651279 1.54424,0.950214 0.5949,0.298935 1.96291,1.378419 3.04003,2.398853 2.0058,1.900238 3.16278,2.380438 3.51622,1.459389 z"
           id="path862"
           sodipodi:nodetypes="ccccccsssssssssssss" />
        <path
           style="fill:#494949;fill-opacity:1;stroke-width:0.26435"
           d="m 86.80742,124.96767 v -6.08006 h 13.21752 13.21751 v 6.08006 6.08005 H 100.02494 86.80742 Z m 25.11328,0 v -4.75831 H 100.02494 88.12917 v 4.75831 4.7583 h 11.89577 11.89576 z M 97.64578,113.68994 c -0.84952,-0.3392 -1.30555,-0.99038 -1.47231,-2.10241 -0.0956,-0.63752 -0.29103,-1.15913 -0.43429,-1.15913 -0.14326,0 -0.6703,-0.19448 -1.17121,-0.43217 -1.53454,-0.72819 -1.77483,-1.52739 -1.93656,-6.44094 -0.14131,-4.293531 -0.15731,-4.388661 -1.02242,-6.080061 -0.48338,-0.94504 -2.22466,-3.74055 -3.86952,-6.212226 -3.30491,-4.966185 -3.71762,-5.712221 -4.74706,-8.580919 -2.55578,-7.12215 1.70781,-16.392043 9.22518,-20.057372 2.5406,-1.238746 4.66735,-1.702518 7.80735,-1.702518 5.18479,0 9.36538,1.758254 12.84661,5.402973 3.26898,3.4225 4.90185,7.339887 4.94043,11.852496 0.0342,3.998077 -1.02558,6.533968 -5.5503,13.281248 -1.68274,2.509319 -3.459,5.391738 -3.94724,6.405388 -0.87727,1.82135 -0.88772,1.88656 -0.88917,5.551361 -8e-4,2.0396 -0.12387,4.14904 -0.27346,4.68765 -0.29938,1.07794 -1.3087,2.02059 -2.39643,2.23814 -0.58884,0.11776 -0.72602,0.31392 -0.84621,1.20994 -0.23791,1.77381 -0.87079,2.17177 -3.56085,2.23913 -1.26831,0.0317 -2.48445,-0.0135 -2.70254,-0.10058 z m 3.96526,-2.73284 c 0,-0.46996 -0.17624,-0.5287 -1.5861,-0.5287 -1.40987,0 -1.58611,0.0587 -1.58611,0.5287 0,0.46996 0.17624,0.5287 1.58611,0.5287 1.40986,0 1.5861,-0.0587 1.5861,-0.5287 z m 3.11933,-3.22507 c 0.17447,-0.17447 0.31722,-0.70978 0.31722,-1.18958 v -0.87236 h -5.02265 -5.02266 v 0.67826 c 0,0.37304 0.12314,0.90835 0.27365,1.18957 0.25385,0.47432 0.59441,0.51133 4.70544,0.51133 3.09447,0 4.5275,-0.0957 4.749,-0.31722 z m 0.31722,-5.49849 v -1.0574 h -5.02265 -5.02266 v 1.0574 1.0574 h 5.02266 5.02265 z m 1.03119,-5.364261 c 0.43661,-0.91484 2.17222,-3.713067 3.85691,-6.218278 4.52384,-6.727155 5.4868,-8.868292 5.49092,-12.208987 0.005,-4.18879 -1.26741,-7.252354 -4.34349,-10.456464 -3.22421,-3.358413 -6.4184,-4.690872 -11.20652,-4.674806 -4.43014,0.01487 -7.44622,1.297428 -10.69804,4.549246 -3.24647,3.246472 -4.48887,6.139521 -4.48308,10.439301 0.005,3.624726 0.76264,5.349776 5.37176,12.228842 1.67752,2.503675 3.42076,5.328916 3.87387,6.278316 l 0.82383,1.72619 h 5.26 5.25999 z"
           id="path850" />
        <g
           aria-label="1"
           id="text866"
           style="font-style:normal;font-weight:normal;font-size:14.8167px;line-height:1.25;font-family:sans-serif;fill:#000000;fill-opacity:1;stroke:none;stroke-width:0.264583">
          <path
             d="M 99.845966,85.438469 V 75.165171 h 1.446944 v 10.273298 z m -2.604498,0 v -1.374596 h 2.749192 v 1.374596 z m 3.906752,0 v -1.374596 h 2.47427 v 1.374596 z M 97.386162,77.49475 v -1.461413 l 2.459804,-0.868166 v 1.490352 z"
             style="font-style:normal;font-variant:normal;font-weight:normal;font-stretch:normal;font-size:14.8167px;font-family:'Segoe MDL2 Assets';-inkscape-font-specification:'Segoe MDL2 Assets';fill:#ffffff;stroke-width:0.264583"
             id="path881" />
        </g>
        <text
           xml:space="preserve"
           id="text868"
           style="font-style:normal;font-weight:normal;font-size:10.5833px;line-height:1.25;font-family:sans-serif;white-space:pre;shape-inside:url(#rect870);fill:#ffffff;fill-opacity:1;stroke:none;" />
        <g
           aria-label="1.010s"
           id="text876"
           style="font-style:normal;font-weight:normal;font-size:5.64444px;line-height:1.25;font-family:sans-serif;fill:#494949;fill-opacity:1;stroke:none;stroke-width:0.264583">
          <path
             d="m 93.514738,126.99889 h -2.221396 v -0.41892 h 0.854383 v -2.75056 h -0.854383 v -0.37483 q 0.173632,0 0.37207,-0.0276 0.198437,-0.0303 0.300412,-0.0854 0.126779,-0.0689 0.198437,-0.17363 0.07441,-0.10749 0.08544,-0.28663 h 0.427192 v 3.69865 h 0.837847 z"
             style="font-style:normal;font-variant:normal;font-weight:normal;font-stretch:normal;font-size:5.64444px;font-family:sans-serif;-inkscape-font-specification:sans-serif;fill:#494949;fill-opacity:1;stroke-width:0.264583"
             id="path884" />
          <path
             d="m 95.47155,126.99889 h -0.658701 v -0.78548 h 0.658701 z"
             style="font-style:normal;font-variant:normal;font-weight:normal;font-stretch:normal;font-size:5.64444px;font-family:sans-serif;-inkscape-font-specification:sans-serif;fill:#494949;fill-opacity:1;stroke-width:0.264583"
             id="path886" />
          <path
             d="m 99.385176,124.94562 q 0,1.10518 -0.347266,1.62333 -0.344509,0.51538 -1.072112,0.51538 -0.738628,0 -1.080382,-0.52365 -0.338997,-0.52366 -0.338997,-1.60955 0,-1.09416 0.34451,-1.61506 0.344509,-0.52365 1.074869,-0.52365 0.738627,0 1.077625,0.53192 0.341753,0.52917 0.341753,1.60128 z m -0.724848,1.25126 q 0.09646,-0.22325 0.129536,-0.52366 0.03583,-0.30317 0.03583,-0.7276 0,-0.41892 -0.03583,-0.72761 -0.03307,-0.30868 -0.132292,-0.52365 -0.09646,-0.21222 -0.264583,-0.3197 -0.165364,-0.10749 -0.427191,-0.10749 -0.259071,0 -0.429948,0.10749 -0.168121,0.10748 -0.267339,0.32521 -0.09371,0.20395 -0.129536,0.53193 -0.03307,0.32797 -0.03307,0.71933 0,0.42995 0.03032,0.71934 0.03032,0.28938 0.129536,0.51814 0.09095,0.21497 0.256315,0.32797 0.16812,0.113 0.443728,0.113 0.259071,0 0.429947,-0.10749 0.170877,-0.10748 0.264583,-0.32521 z"
             style="font-style:normal;font-variant:normal;font-weight:normal;font-stretch:normal;font-size:5.64444px;font-family:sans-serif;-inkscape-font-specification:sans-serif;fill:#494949;fill-opacity:1;stroke-width:0.264583"
             id="path888" />
          <path
             d="m 102.74483,126.99889 h -2.2214 v -0.41892 h 0.85439 v -2.75056 h -0.85439 v -0.37483 q 0.17364,0 0.37207,-0.0276 0.19844,-0.0303 0.30042,-0.0854 0.12678,-0.0689 0.19843,-0.17363 0.0744,-0.10749 0.0854,-0.28663 h 0.42719 v 3.69865 h 0.83785 z"
             style="font-style:normal;font-variant:normal;font-weight:normal;font-stretch:normal;font-size:5.64444px;font-family:sans-serif;-inkscape-font-specification:sans-serif;fill:#494949;fill-opacity:1;stroke-width:0.264583"
             id="path890" />
          <path
             d="m 106.56199,124.94562 q 0,1.10518 -0.34726,1.62333 -0.34451,0.51538 -1.07212,0.51538 -0.73862,0 -1.08038,-0.52365 -0.33899,-0.52366 -0.33899,-1.60955 0,-1.09416 0.34451,-1.61506 0.34451,-0.52365 1.07486,-0.52365 0.73863,0 1.07763,0.53192 0.34175,0.52917 0.34175,1.60128 z m -0.72484,1.25126 q 0.0965,-0.22325 0.12953,-0.52366 0.0358,-0.30317 0.0358,-0.7276 0,-0.41892 -0.0358,-0.72761 -0.0331,-0.30868 -0.13229,-0.52365 -0.0965,-0.21222 -0.26458,-0.3197 -0.16537,-0.10749 -0.4272,-0.10749 -0.25907,0 -0.42994,0.10749 -0.16812,0.10748 -0.26734,0.32521 -0.0937,0.20395 -0.12954,0.53193 -0.0331,0.32797 -0.0331,0.71933 0,0.42995 0.0303,0.71934 0.0303,0.28938 0.12953,0.51814 0.0909,0.21497 0.25632,0.32797 0.16812,0.113 0.44372,0.113 0.25908,0 0.42995,-0.10749 0.17088,-0.10748 0.26459,-0.32521 z"
             style="font-style:normal;font-variant:normal;font-weight:normal;font-stretch:normal;font-size:5.64444px;font-family:sans-serif;-inkscape-font-specification:sans-serif;fill:#494949;fill-opacity:1;stroke-width:0.264583"
             id="path892" />
          <path
             d="m 109.64328,126.11144 q 0,0.42168 -0.35002,0.69177 -0.34726,0.2701 -0.95084,0.2701 -0.34176,0 -0.62839,-0.0799 -0.28387,-0.0827 -0.4768,-0.17914 v -0.58153 h 0.0276 q 0.24529,0.18465 0.5457,0.2949 0.30042,0.10748 0.57602,0.10748 0.34176,0 0.53468,-0.11024 0.19293,-0.11024 0.19293,-0.34727 0,-0.1819 -0.10473,-0.2756 -0.10473,-0.0937 -0.40239,-0.15986 -0.11024,-0.0248 -0.28939,-0.0579 -0.17639,-0.0331 -0.32246,-0.0717 -0.40514,-0.10749 -0.57602,-0.31419 -0.16812,-0.20947 -0.16812,-0.51263 0,-0.19017 0.0772,-0.35829 0.0799,-0.16812 0.23978,-0.30042 0.15434,-0.12953 0.39136,-0.20395 0.23978,-0.0772 0.53468,-0.0772 0.27561,0 0.55673,0.0689 0.28387,0.0661 0.47129,0.1626 v 0.55398 h -0.0276 q -0.19844,-0.14608 -0.48232,-0.24529 -0.28387,-0.10198 -0.55672,-0.10198 -0.28388,0 -0.47956,0.11024 -0.19568,0.10749 -0.19568,0.32246 0,0.19017 0.11851,0.28664 0.11575,0.0965 0.37483,0.15709 0.14331,0.0331 0.3197,0.0662 0.17914,0.0331 0.29766,0.0606 0.36104,0.0827 0.55672,0.28388 0.19568,0.20395 0.19568,0.54019 z"
             style="font-style:normal;font-variant:normal;font-weight:normal;font-stretch:normal;font-size:5.64444px;font-family:sans-serif;-inkscape-font-specification:sans-serif;fill:#494949;fill-opacity:1;stroke-width:0.264583"
             id="path894" />
        </g>
      </g>
    </g>
    <path
       style="fill:none;stroke:#494949;stroke-width:0.5;stroke-linecap:butt;stroke-linejoin:miter;stroke-miterlimit:4;stroke-dasharray:none;stroke-opacity:1"
       d="M 83.09452,33.006715 67.408508,15.241837 H 13.424013"
       id="path915"
       sodipodi:nodetypes="ccc" />
    <path
       style="fill:none;stroke:#494949;stroke-width:0.5;stroke-linecap:butt;stroke-linejoin:miter;stroke-miterlimit:4;stroke-dasharray:none;stroke-opacity:1"
       d="M 91.425954,45.684769 75.739942,63.449647 H 13.424013"
       id="path915-3"
       sodipodi:nodetypes="ccc" />
    <path
       style="fill:none;stroke:#494949;stroke-width:0.5;stroke-linecap:butt;stroke-linejoin:miter;stroke-miterlimit:4;stroke-dasharray:none;stroke-opacity:1"
       d="m 84.112187,86.826272 -6.331582,7.00728 H 13.424013"
       id="path915-3-9"
       sodipodi:nodetypes="ccc" />
    <text
       xml:space="preserve"
       style="font-style:normal;font-weight:normal;font-size:5.64444px;line-height:1.25;font-family:sans-serif;fill:#ffffff;fill-opacity:1;stroke:none;stroke-width:0.264583"
       x="14.354339"
       y="12.865956"
       id="text979"><tspan
         id="tspan977"
         x="14.354339"
         y="12.865956"
         style="font-size:5.64444px;fill:#ffffff;stroke-width:0.264583"
         sodipodi:role="line">setBulbColor()</tspan></text>
    <text
       xml:space="preserve"
       style="font-style:normal;font-weight:normal;font-size:5.64444px;line-height:1.25;font-family:sans-serif;fill:#ffffff;fill-opacity:1;stroke:none;stroke-width:0.264583"
       x="14.354339"
       y="91.786369"
       id="text979-8"><tspan
         id="tspan977-1"
         x="14.354339"
         y="91.786369"
         style="font-size:5.64444px;fill:#ffffff;stroke-width:0.264583"
         sodipodi:role="line">setBulbTime()</tspan></text>
    <text
       xml:space="preserve"
       style="font-style:normal;font-weight:normal;font-size:5.64444px;line-height:1.25;font-family:sans-serif;fill:#ffffff;fill-opacity:1;stroke:none;stroke-width:0.264583"
       x="14.354339"
       y="60.783108"
       id="text979-8-9"><tspan
         id="tspan977-1-7"
         x="14.354339"
         y="60.783108"
         style="font-size:5.64444px;fill:#ffffff;stroke-width:0.264583"
         sodipodi:role="line">setBulbNumber()</tspan></text>
    <text
       xml:space="preserve"
       style="font-style:normal;font-weight:normal;font-size:5.64444px;line-height:1.25;font-family:sans-serif;fill:#494949;fill-opacity:1;stroke:none;stroke-width:0.264583"
       x="14.354339"
       y="38.359337"
       id="text979-8-9-6"><tspan
         id="tspan977-1-7-3"
         x="14.354339"
         y="38.359337"
         style="font-size:5.64444px;fill:#494949;fill-opacity:1;stroke-width:0.264583"
         sodipodi:role="line">setBulbCounter()</tspan></text>
    <rect
       style="fill:#ffffff;fill-opacity:1;stroke:#494949;stroke-width:1.5;stroke-linecap:square;stroke-linejoin:miter;stroke-miterlimit:4;stroke-dasharray:none;stroke-opacity:1;paint-order:stroke markers fill"
       id="rect1055-6"
       width="70.964951"
       height="13.096199"
       x="11.859043"
       y="101.02393" />
    <text
       xml:space="preserve"
       style="font-style:normal;font-weight:normal;font-size:5.64444px;line-height:1.25;font-family:sans-serif;fill:#494949;fill-opacity:1;stroke:none;stroke-width:0.264583"
       x="14.83706"
       y="109.74648"
       id="text979-8-9-6-7"><tspan
         id="tspan977-1-7-3-9"
         x="14.83706"
         y="109.74648"
         style="font-size:5.64444px;fill:#494949;fill-opacity:1;stroke-width:0.264583"
         sodipodi:role="line">showAllBulbNumbers()</tspan></text>
  </g>
</svg>
