<?xml version="1.0" encoding="UTF-8" standalone="no"?>
<svg
   xmlns:dc="http://purl.org/dc/elements/1.1/"
   xmlns:cc="http://creativecommons.org/ns#"
   xmlns:rdf="http://www.w3.org/1999/02/22-rdf-syntax-ns#"
   xmlns:svg="http://www.w3.org/2000/svg"
   xmlns="http://www.w3.org/2000/svg"
   xmlns:sodipodi="http://sodipodi.sourceforge.net/DTD/sodipodi-0.dtd"
   xmlns:inkscape="http://www.inkscape.org/namespaces/inkscape"
   width="100"
   height="150"
   viewBox="0 0 26.458333 39.687501"
   version="1.1"
   id="svg967"
   inkscape:version="1.0.2-2 (e86c870879, 2021-01-15)"
   sodipodi:docname="bulb.svg">
  <metadata
     id="metadata1566">
    <rdf:RDF>
      <cc:Work
         rdf:about="">
        <dc:format>image/svg+xml</dc:format>
        <dc:type
           rdf:resource="http://purl.org/dc/dcmitype/StillImage" />
      </cc:Work>
    </rdf:RDF>
  </metadata>
  <defs
     id="defs1564" />
  <sodipodi:namedview
     pagecolor="#ffffff"
     bordercolor="#666666"
     borderopacity="1"
     objecttolerance="10"
     gridtolerance="10"
     guidetolerance="10"
     inkscape:pageopacity="0"
     inkscape:pageshadow="2"
     inkscape:window-width="1920"
     inkscape:window-height="1137"
     id="namedview1562"
     showgrid="false"
     inkscape:zoom="6.4666667"
     inkscape:cx="50"
     inkscape:cy="75"
     inkscape:window-x="-8"
     inkscape:window-y="-8"
     inkscape:window-maximized="1"
     inkscape:current-layer="svg967" />
  <path
     style="fill:#38434a;fill-opacity:1;stroke:none;stroke-width:0.155239"
     d="m 10.339412,37.01834 c 0.01656,3.569643 5.867966,3.551763 5.863738,-0.01103 1.04149,-0.05678 2.072594,-0.639528 2.377378,-1.722389 0.7923,-2.813719 -0.386325,-5.506756 1.132076,-8.279362 2.186959,-3.993741 5.60833,-7.427888 6.531732,-12.037702 C 27.787786,7.2624414 20.72427,0.03892867 13.357616,1.5542796e-4 6.023993,-0.03852419 -1.3700993,7.0856841 0.21705557,14.860643 1.1804366,19.580289 4.6485346,23.106427 6.9259316,27.185786 c 1.4260265,2.554357 0.5036128,5.099702 0.9915714,7.806845 0.2230896,1.236949 1.2359316,1.96547 2.421909,2.025709"
     id="path937-0-8" />
  <path
     style="fill:#ffee58;fill-opacity:1;stroke-width:0.155239"
     d="m 17.271384,27.517717 c 0.267474,-0.858122 1.389037,-2.796696 3.023975,-5.22683 3.520514,-5.232772 4.37001,-7.355594 4.036352,-10.086382 C 24.054604,9.9365637 23.613451,8.7003825 22.48174,7.0204333 21.370554,5.3709756 19.962798,4.1334344 18.224385,3.277864 16.244266,2.3033302 15.385764,2.1042316 13.207192,2.1142976 c -2.152448,0.01 -3.040987,0.2144622 -4.8952645,1.1267519 -3.7406607,1.8403646 -6.2023427,5.7835211 -6.1947412,9.9228015 0.00443,2.412894 0.6650496,3.906886 3.894741,8.808089 2.1383945,3.245106 3.3839688,5.433342 3.3849114,5.94662 2.878e-4,0.156707 0.8271213,0.198067 3.8461333,0.192388 l 3.845754,-0.0072 z"
     id="bg" />
  <path
     style="fill:#ffffff;stroke:none;stroke-width:0.155239"
     d="m 20.946103,9.9190291 c 1.365431,-0.5329362 2.274718,1.9553949 0.912744,2.4355369 -1.256808,0.442932 -2.155435,-1.950465 -0.912744,-2.4355369"
     id="path949-4-2" />
  <path
     style="fill:#ffffff;stroke:none;stroke-width:0.155239"
     d="m 15.372756,3.7005041 c 1.72731,-0.1013229 3.91593,2.2805868 4.908936,3.4698588 0.521632,0.6246528 0.934521,1.9424547 -0.274015,2.1202679 C 19.461266,9.3709914 18.994595,8.9356788 18.646116,8.5721359 17.509458,7.3868812 15.692159,6.6334799 14.70341,5.4115589 14.174782,4.758495 14.475855,3.7531047 15.372756,3.7005041"
     id="path947-6-0" />
  <path
     style="fill:#f1f2f2;fill-opacity:1;stroke:none;stroke-width:0.155239"
     d="m 14.351445,37.010793 c -0.292923,0.898865 -1.864106,0.901821 -2.160328,0.0041 l 2.160328,-0.0041"
     id="path971-0-2" />
  <path
     style="fill:#f1f2f2;fill-opacity:1;stroke:none;stroke-width:0.155239"
     d="m 16.814075,33.570328 c -5.56e-4,0.378568 0.089,0.977014 -0.245068,1.245482 -0.994442,0.315755 -5.741747,0.63627 -6.5820542,0.01238 C 9.650524,34.553957 9.7199661,33.969423 9.7158671,33.58368 l 7.0982079,-0.01335"
     id="path963-2-5"
     sodipodi:nodetypes="ccccc" />
  <path
     style="fill:#f1f2f2;fill-opacity:1;stroke:none;stroke-width:0.155239"
     d="m 16.807766,30.134507 0.0026,1.405563 -7.0982083,0.01335 -0.00258,-1.405564 7.0982083,-0.01335"
     id="path955-7-9" />
</svg>
