<?xml version="1.0" encoding="UTF-8" standalone="no"?>
<svg
   xmlns:dc="http://purl.org/dc/elements/1.1/"
   xmlns:cc="http://creativecommons.org/ns#"
   xmlns:rdf="http://www.w3.org/1999/02/22-rdf-syntax-ns#"
   xmlns:svg="http://www.w3.org/2000/svg"
   xmlns="http://www.w3.org/2000/svg"
   xmlns:xlink="http://www.w3.org/1999/xlink"
   xmlns:sodipodi="http://sodipodi.sourceforge.net/DTD/sodipodi-0.dtd"
   xmlns:inkscape="http://www.inkscape.org/namespaces/inkscape"
   version="1.1"
   viewBox="0 0 273 191"
   id="svg22"
   sodipodi:docname="salesforce_logo.svg"
   inkscape:version="1.0.2-2 (e86c870879, 2021-01-15)">
  <sodipodi:namedview
     pagecolor="#ffffff"
     bordercolor="#666666"
     borderopacity="1"
     objecttolerance="10"
     gridtolerance="10"
     guidetolerance="10"
     inkscape:pageopacity="0"
     inkscape:pageshadow="2"
     inkscape:window-width="1920"
     inkscape:window-height="1137"
     id="namedview24"
     showgrid="false"
     inkscape:zoom="1.6227194"
     inkscape:cx="57.899173"
     inkscape:cy="133.79614"
     inkscape:window-x="-8"
     inkscape:window-y="-8"
     inkscape:window-maximized="1"
     inkscape:current-layer="svg22" />
  <title
     id="title2">Salesforce.com logo</title>
  <desc
     id="desc4">A cloud computing company based in San Francisco, California, United States</desc>
  <metadata
     id="metadata6">
    <rdf:RDF>
      <cc:Work
         rdf:about="">
        <dc:format>image/svg+xml</dc:format>
        <dc:type
           rdf:resource="http://purl.org/dc/dcmitype/StillImage" />
        <dc:title />
      </cc:Work>
    </rdf:RDF>
  </metadata>
  <defs
     id="defs9">
    <path
       id="a"
       d="m0.06 0.5h272v190h-272z" />
    <mask
       id="b"
       fill="#fff">
      <use
         xlink:href="#a"
         id="use11" />
    </mask>
  </defs>
  <path
     id="path14"
     mask="url(#b)"
     style="fill-rule:evenodd;fill:#ffffff"
     d="M 71.009766 0.55273438 C 41.809766 0.55273437 18.109375 24.151563 18.109375 53.351562 A 52.6 52.6 0 0 0 22.460938 74.351562 C 8.900937 82.351562 -0.24023438 97.152348 -0.24023438 114.15234 C -0.24023437 139.45234 20.060156 160.05273 45.160156 160.05273 A 45.1 45.1 0 0 0 54.5 159.08008 C 61.4 177.78008 79.300392 191.08008 100.40039 191.08008 C 120.60039 191.08008 137.95039 178.7793 145.40039 161.2793 A 42.7 42.7 0 0 0 164.19922 165.59961 C 180.19922 165.59961 194.24961 156.69961 201.59961 143.59961 C 205.37961 144.35161 209.23922 144.75 213.19922 144.75 C 245.59922 144.75 271.90039 118.25078 271.90039 85.550781 C 271.90039 52.850781 245.59922 26.349609 213.19922 26.349609 A 58 58 0 0 0 189.5 31.400391 C 181.1 16.500391 165.5 6.5 147.5 6.5 C 134 6.5 121.78 12.160781 113 21.300781 L 113.00977 21.351562 C 103.40977 8.701563 88.109766 0.55273438 71.009766 0.55273438 z M 158.49805 67.011719 A 12.217 12.217 0 0 1 160.64258 67.177734 A 13.258 13.258 0 0 1 162.20117 67.548828 C 162.31317 67.592828 162.61423 67.741656 162.49023 68.097656 L 161.28516 71.410156 C 161.18416 71.659156 161.11556 71.811297 160.60156 71.654297 C 160.47356 71.616297 160.28392 71.561031 159.79492 71.457031 C 159.43992 71.383031 158.97305 71.326172 158.49805 71.326172 A 5.48 5.48 0 0 0 156.80469 71.570312 A 3.273 3.273 0 0 0 155.48438 72.392578 C 155.09037 72.787578 154.62591 73.361219 154.37891 74.074219 C 153.79991 75.744219 153.56992 77.518812 153.54492 77.632812 L 158.58789 77.632812 C 159.00989 77.630813 159.14452 77.826625 159.10352 78.140625 L 158.51562 81.421875 C 158.42462 81.896875 157.98633 81.880859 157.98633 81.880859 L 152.78906 81.880859 L 149.23633 101.98828 C 148.86333 104.06728 148.39661 105.85206 147.84961 107.28906 C 147.29661 108.73906 146.71978 109.80141 145.80078 110.81641 C 144.95078 111.75741 143.98877 112.45256 142.88477 112.85156 C 141.78777 113.24756 140.46567 113.45117 139.01367 113.45117 C 138.32067 113.45117 137.57917 113.43942 136.70117 113.23242 C 136.06917 113.08342 135.72572 112.97655 135.26172 112.81055 C 135.06372 112.73955 134.90558 112.49364 135.01758 112.18164 C 135.12758 111.86564 136.0565 109.31156 136.1875 108.97656 C 136.3485 108.56656 136.75781 108.72266 136.75781 108.72266 C 137.03881 108.84066 137.23438 108.92405 137.60938 108.99805 C 137.98438 109.07305 138.49105 109.13672 138.87305 109.13672 C 139.55905 109.13672 140.18647 109.05214 140.73047 108.86914 C 141.38947 108.64814 141.77083 108.27086 142.17383 107.75586 C 142.58983 107.22386 142.92744 106.48972 143.27344 105.51172 C 143.62444 104.52072 143.94175 103.21305 144.21875 101.62305 L 147.75586 81.880859 L 144.26953 81.880859 C 143.84953 81.882859 143.71486 81.685094 143.75586 81.371094 L 144.34375 78.091797 C 144.43575 77.614797 144.87305 77.632813 144.87305 77.632812 L 148.45312 77.632812 L 148.64648 76.564453 C 149.18148 73.397453 150.24841 70.990156 151.81641 69.410156 C 153.39541 67.818156 155.64505 67.011719 158.49805 67.011719 z M 87.091797 67.521484 L 91.275391 67.521484 C 91.539391 67.521484 91.726563 67.733094 91.726562 67.996094 L 91.726562 101.66406 C 91.726562 101.92806 91.539391 102.14453 91.275391 102.14453 L 87.091797 102.14453 C 86.826797 102.14453 86.638672 101.92806 86.638672 101.66406 L 86.638672 67.996094 C 86.638672 67.733094 86.826797 67.521484 87.091797 67.521484 z M 130.98438 77.066406 C 133.98438 77.066406 136.88438 77.936797 138.98438 79.216797 C 139.17438 79.330797 139.36286 79.55075 139.25586 79.84375 C 139.16586 80.12375 138.231 82.621297 138.125 82.904297 C 137.927 83.427297 137.38477 83.076172 137.38477 83.076172 C 135.54477 82.065172 132.69492 81.267578 130.29492 81.267578 C 128.13492 81.267578 126.73438 82.416562 126.73438 83.976562 L 126.73438 84.070312 C 126.73438 85.890312 129.12453 86.672313 131.89453 87.570312 L 132.37305 87.724609 C 136.04305 88.874609 139.95312 90.484297 139.95312 94.904297 L 139.95312 94.998047 C 139.95312 99.778047 136.4843 102.74805 130.9043 102.74805 C 128.1643 102.74805 125.54367 102.31961 122.76367 100.84961 C 122.24367 100.54861 121.72384 100.28016 121.21484 99.910156 C 121.15784 99.831156 120.9247 99.738969 121.0957 99.292969 L 121.08398 99.283203 L 122.18359 96.224609 C 122.34459 95.724609 122.81697 95.908656 122.91797 95.972656 C 123.21597 96.164656 123.44489 96.321781 123.83789 96.550781 C 127.07789 98.604781 130.08434 98.621094 131.02734 98.621094 C 133.44734 98.621094 134.95703 97.331563 134.95703 95.601562 L 134.95703 95.507812 C 134.95703 93.627812 132.64703 92.911891 129.95703 92.087891 L 129.36719 91.902344 C 125.68719 90.852344 121.74609 89.333828 121.74609 84.673828 L 121.74609 84.578125 C 121.74609 80.158125 125.31773 77.068359 130.42773 77.068359 L 130.98438 77.066406 z M 49.294922 77.074219 C 52.294922 77.074219 55.194922 77.944609 57.294922 79.224609 C 57.485922 79.338609 57.672406 79.558562 57.566406 79.851562 C 57.466406 80.131563 56.532781 82.629109 56.425781 82.912109 C 56.228781 83.435109 55.6875 83.085938 55.6875 83.085938 C 53.8575 82.074938 50.997656 81.275391 48.597656 81.275391 C 46.437656 81.275391 45.037109 82.424375 45.037109 83.984375 L 45.037109 84.078125 C 45.037109 85.898125 47.427266 86.680125 50.197266 87.578125 L 50.675781 87.732422 C 54.335781 88.882422 58.255859 90.492109 58.255859 94.912109 L 58.255859 95.007812 C 58.255859 99.787812 54.785078 102.75781 49.205078 102.75781 C 46.465078 102.75781 43.846406 102.32742 41.066406 100.85742 C 40.546406 100.55642 40.026625 100.28797 39.515625 99.917969 C 39.460625 99.838969 39.229391 99.746781 39.400391 99.300781 L 39.396484 99.292969 L 40.496094 96.232422 C 40.670094 95.708422 41.070469 95.883469 41.230469 95.980469 C 41.533469 96.165469 41.757391 96.329594 42.150391 96.558594 C 45.400391 98.612594 48.398844 98.628906 49.339844 98.628906 C 51.759844 98.628906 53.269531 97.339375 53.269531 95.609375 L 53.269531 95.515625 C 53.269531 93.635625 50.949531 92.919703 48.269531 92.095703 L 47.677734 91.910156 C 43.997734 90.860156 40.058594 89.341641 40.058594 84.681641 L 40.058594 84.585938 C 40.058594 80.165937 43.628281 77.076172 48.738281 77.076172 L 49.294922 77.074219 z M 213.86719 77.089844 C 215.18719 77.089844 216.35719 77.168266 217.36719 77.322266 C 218.44719 77.485266 219.87452 77.873375 220.47852 78.109375 C 220.58952 78.152375 220.89353 78.30125 220.76953 78.65625 C 220.33053 79.89625 220.02814 80.707891 219.61914 81.837891 C 219.44414 82.318891 219.07812 82.158203 219.07812 82.158203 C 217.53812 81.676203 216.06844 81.453125 214.14844 81.453125 C 211.84844 81.453125 210.10852 82.234375 208.97852 83.734375 C 207.83352 85.254375 207.19645 87.233047 207.18945 89.873047 C 207.17945 92.773047 207.89945 94.914141 209.18945 96.244141 C 210.46945 97.573141 212.26953 98.244141 214.51953 98.244141 C 215.42953 98.244141 216.29236 98.182547 217.06836 98.060547 C 217.83836 97.940547 218.56128 97.700406 219.23828 97.441406 C 219.23828 97.441406 219.68098 97.271609 219.83398 97.724609 L 219.83789 97.724609 L 220.98828 100.88477 C 221.13428 101.27677 220.79883 101.4375 220.79883 101.4375 C 219.03883 102.1345 216.58727 102.61719 214.19727 102.61719 C 210.15727 102.61719 207.05805 101.4582 204.99805 99.158203 C 202.93805 96.868203 201.89844 93.738906 201.89844 89.878906 C 201.89844 88.088906 202.1532 86.397422 202.6582 84.857422 C 203.1682 83.307422 203.92773 81.948594 204.92773 80.808594 C 205.92773 79.668594 207.18773 78.750891 208.67773 78.087891 C 210.16773 77.423891 211.90719 77.089844 213.86719 77.089844 z M 71.748047 77.101562 C 74.898047 77.101562 77.328281 77.83125 78.988281 79.28125 C 80.654281 80.73125 81.498047 83.080234 81.498047 86.240234 L 81.507812 100.64062 C 81.507813 100.64063 81.536484 101.05725 81.146484 101.15625 C 81.146484 101.15625 80.563109 101.3165 80.037109 101.4375 A 95.1 95.1 0 0 1 76.066406 102.20898 C 74.506406 102.47198 72.897344 102.60742 71.277344 102.60742 C 69.737344 102.60742 68.337656 102.46464 67.097656 102.18164 C 65.847656 101.90164 64.763719 101.43097 63.886719 100.79297 A 6.54 6.54 0 0 1 61.826172 98.322266 C 61.346172 97.332266 61.103516 96.122656 61.103516 94.722656 C 61.103516 93.342656 61.388266 92.122031 61.947266 91.082031 A 7.63 7.63 0 0 1 64.238281 88.482422 C 65.188281 87.798422 66.297344 87.283172 67.527344 86.951172 C 68.747344 86.621172 70.058203 86.453125 71.408203 86.453125 C 72.398203 86.453125 73.227187 86.476438 73.867188 86.523438 L 73.882812 86.560547 C 73.882812 86.560547 75.132422 86.673141 76.482422 86.869141 L 76.482422 86.203125 C 76.482422 84.103125 76.044594 83.104359 75.183594 82.443359 C 74.303594 81.768359 72.983203 81.423828 71.283203 81.423828 C 71.283203 81.423828 67.442109 81.373437 64.412109 83.023438 C 64.272109 83.106437 64.154297 83.152344 64.154297 83.152344 C 64.154297 83.152344 63.775719 83.285484 63.636719 82.896484 L 62.515625 79.896484 C 62.345625 79.461484 62.658203 79.269531 62.658203 79.269531 C 64.078203 78.157531 67.517578 77.490234 67.517578 77.490234 C 68.657578 77.261234 70.568047 77.101562 71.748047 77.101562 z M 107.84766 77.136719 A 11.5 11.5 0 0 1 112.36719 78.054688 C 113.35719 78.474688 114.34719 79.243984 115.36719 80.333984 C 116.00719 81.023984 116.99267 82.533438 117.38867 84.023438 L 117.39844 84.027344 C 118.41144 87.577344 117.88809 90.648406 117.87109 90.816406 C 117.82809 91.222406 117.41211 91.226562 117.41211 91.226562 L 101.61133 91.214844 C 101.70133 93.614844 102.28141 95.304844 103.44141 96.464844 C 104.58141 97.597844 106.4018 98.320219 108.8418 98.324219 C 112.5918 98.334219 114.19227 97.576297 115.32227 97.154297 C 115.32227 97.154297 115.75897 96.998688 115.91797 97.429688 L 116.94727 100.32031 C 117.15427 100.80731 116.98845 100.97622 116.81445 101.07422 C 115.83445 101.62422 113.43305 102.6393 108.87305 102.6543 C 106.65305 102.6613 104.73453 102.34156 103.14453 101.72656 C 101.54453 101.10656 100.21383 100.22766 99.173828 99.097656 C 98.143828 97.977656 97.372531 96.627891 96.894531 95.087891 C 96.417531 93.557891 96.177734 91.866875 96.177734 90.046875 C 96.177734 88.266875 96.408187 86.567578 96.867188 85.017578 C 97.327187 83.447578 98.050813 82.077969 99.007812 80.917969 C 99.967812 79.757969 101.18867 78.828484 102.63867 78.146484 C 104.08867 77.469484 105.87766 77.136719 107.84766 77.136719 z M 234.14844 77.136719 A 11.5 11.5 0 0 1 238.66797 78.054688 C 239.65797 78.474688 240.64797 79.243984 241.66797 80.333984 C 242.30797 81.023984 243.2905 82.533438 243.6875 84.023438 L 243.70898 84.027344 C 244.72098 87.577344 244.19669 90.648406 244.17969 90.816406 C 244.13669 91.222406 243.7207 91.226562 243.7207 91.226562 L 227.92188 91.214844 C 228.01187 93.614844 228.59195 95.304844 229.75195 96.464844 C 230.89195 97.597844 232.70039 98.320219 235.15039 98.324219 C 238.90039 98.334219 240.50086 97.576297 241.63086 97.154297 C 241.63086 97.154297 242.06661 96.998688 242.22461 97.429688 L 243.25586 100.32031 C 243.46186 100.80731 243.29609 100.97622 243.12109 101.07422 C 242.14109 101.62422 239.74164 102.6393 235.18164 102.6543 C 232.97164 102.6613 231.04117 102.34156 229.45117 101.72656 C 227.85117 101.10656 226.52047 100.22766 225.48047 99.097656 C 224.44047 97.977656 223.67041 96.627891 223.19141 95.087891 C 222.71741 93.557891 222.47656 91.866875 222.47656 90.046875 C 222.47656 88.266875 222.70797 86.567578 223.16797 85.017578 C 223.62797 83.447578 224.34959 82.077969 225.30859 80.917969 C 226.26859 79.757969 227.4875 78.828484 228.9375 78.146484 C 230.3875 77.469484 232.17844 77.136719 234.14844 77.136719 z M 170.84375 77.154297 C 172.74375 77.154297 174.42375 77.489297 175.84375 78.154297 C 177.27375 78.814297 178.47283 79.733047 179.42383 80.873047 C 180.37383 82.013047 181.08592 83.373828 181.54492 84.923828 L 181.5332 84.923828 C 181.9872 86.463828 182.21875 88.153594 182.21875 89.933594 C 182.21875 91.723594 181.9872 93.403359 181.5332 94.943359 C 181.0732 96.493359 180.36306 97.854141 179.41406 98.994141 C 178.46406 100.13414 177.25398 101.04536 175.83398 101.69336 C 174.41398 102.34136 172.73375 102.67188 170.84375 102.67188 C 168.95375 102.67188 167.27375 102.34136 165.84375 101.69336 C 164.42375 101.04336 163.21467 100.13414 162.26367 98.994141 C 161.31367 97.854141 160.60153 96.493359 160.14453 94.943359 C 159.68953 93.403359 159.45703 91.723594 159.45703 89.933594 C 159.45703 88.143594 159.68953 86.463828 160.14453 84.923828 C 160.60453 83.373828 161.31567 82.013047 162.26367 80.873047 C 163.21367 79.733047 164.42375 78.818297 165.84375 78.154297 C 167.27375 77.491297 168.94375 77.154297 170.84375 77.154297 z M 196.6582 77.365234 C 197.05523 77.344422 197.49523 77.345953 197.99023 77.376953 C 199.02023 77.440953 200.36186 77.724172 200.63086 77.826172 A 0.428 0.428 0 0 1 200.86719 78.394531 L 200.87891 78.328125 C 200.72891 78.758125 199.9585 80.917672 199.6875 81.638672 C 199.5845 81.912672 199.41533 82.098453 199.11133 82.064453 C 199.11133 82.064453 198.20781 81.853516 197.38281 81.853516 A 7.68 7.68 0 0 0 195.26172 82.150391 A 4.79 4.79 0 0 0 193.3125 83.320312 C 192.7395 83.880313 192.27364 84.661625 191.93164 85.640625 C 191.58464 86.630625 191.41016 88.20125 191.41016 89.78125 L 191.41016 101.58008 A 0.479 0.479 0 0 1 190.93359 102.06055 L 186.79297 102.06055 A 0.48 0.48 0 0 1 186.31445 101.58008 L 186.31445 78.080078 C 186.31445 77.816078 186.50362 77.603516 186.76562 77.603516 L 190.80664 77.603516 C 191.07264 77.603516 191.25977 77.816078 191.25977 78.080078 L 191.26172 80.001953 C 191.86172 79.181953 192.94387 78.47225 193.92188 78.03125 C 194.66437 77.69825 195.46711 77.427672 196.6582 77.365234 z M 107.47852 81.314453 C 105.40852 81.314453 103.93675 82.123516 102.96875 83.603516 C 102.32403 84.573091 101.91057 85.82314 101.6875 87.322266 L 112.9375 87.324219 C 112.8305 85.874219 112.54744 84.578516 111.89844 83.603516 C 110.91844 82.127516 109.54852 81.314453 107.47852 81.314453 z M 101.6875 87.322266 L 101.63867 87.322266 L 101.6875 87.324219 C 101.6875 87.324219 101.6875 87.322266 101.6875 87.322266 z M 233.77734 81.314453 C 231.70734 81.314453 230.23458 82.123516 229.26758 83.603516 C 228.62186 84.573091 228.21135 85.82314 227.98828 87.322266 L 239.23828 87.324219 C 239.13228 85.874219 238.84727 84.578516 238.19727 83.603516 C 237.21727 82.127516 235.84734 81.314453 233.77734 81.314453 z M 227.98828 87.322266 L 227.9375 87.322266 L 227.98828 87.324219 C 227.98828 87.324219 227.98828 87.322266 227.98828 87.322266 z M 170.85352 81.433594 C 168.77352 81.433594 167.30198 82.143047 166.33398 83.623047 C 165.35998 85.113047 164.86328 87.233594 164.86328 89.933594 C 164.86328 92.633594 165.35698 94.773438 166.33398 96.273438 C 167.30398 97.759438 168.78352 98.484375 170.85352 98.484375 C 172.92352 98.484375 174.41053 97.753672 175.39453 96.263672 C 176.38003 94.754439 176.88425 92.625784 176.88477 89.927734 C 176.88401 87.230678 176.38577 85.11191 175.39453 83.623047 C 174.41453 82.150047 172.93352 81.433594 170.85352 81.433594 z M 72.195312 90.447266 C 68.975312 90.407266 67.605234 91.589891 67.615234 91.587891 C 66.665234 92.257891 66.205078 93.258672 66.205078 94.638672 C 66.205078 95.518672 66.364734 96.2045 66.677734 96.6875 C 66.882734 97.0085 66.968891 97.129047 67.587891 97.623047 L 67.597656 97.628906 C 67.587656 97.625906 69.006797 98.743781 72.216797 98.550781 C 74.475129 98.414882 76.471661 97.983057 76.474609 97.982422 L 76.474609 90.8125 A 32 32 0 0 0 72.195312 90.447266 z " />
</svg>
