<?xml version="1.0" encoding="UTF-8" standalone="no"?>
<svg
   xmlns:dc="http://purl.org/dc/elements/1.1/"
   xmlns:cc="http://creativecommons.org/ns#"
   xmlns:rdf="http://www.w3.org/1999/02/22-rdf-syntax-ns#"
   xmlns:svg="http://www.w3.org/2000/svg"
   xmlns="http://www.w3.org/2000/svg"
   xmlns:sodipodi="http://sodipodi.sourceforge.net/DTD/sodipodi-0.dtd"
   xmlns:inkscape="http://www.inkscape.org/namespaces/inkscape"
   width="210mm"
   height="148mm"
   viewBox="0 0 210 148"
   version="1.1"
   id="svg8"
   inkscape:version="1.0.2-2 (e86c870879, 2021-01-15)"
   sodipodi:docname="promo.svg">
  <defs
     id="defs2" />
  <sodipodi:namedview
     id="base"
     pagecolor="#ffffff"
     bordercolor="#666666"
     borderopacity="1.0"
     inkscape:pageopacity="1"
     inkscape:pageshadow="2"
     inkscape:zoom="0.93303299"
     inkscape:cx="495.78025"
     inkscape:cy="241.1717"
     inkscape:document-units="mm"
     inkscape:current-layer="layer1"
     inkscape:document-rotation="0"
     showgrid="false"
     inkscape:window-width="1920"
     inkscape:window-height="1137"
     inkscape:window-x="-8"
     inkscape:window-y="-8"
     inkscape:window-maximized="1" />
  <metadata
     id="metadata5">
    <rdf:RDF>
      <cc:Work
         rdf:about="">
        <dc:format>image/svg+xml</dc:format>
        <dc:type
           rdf:resource="http://purl.org/dc/dcmitype/StillImage" />
        <dc:title />
      </cc:Work>
    </rdf:RDF>
  </metadata>
  <g
     inkscape:label="Warstwa 1"
     inkscape:groupmode="layer"
     id="layer1">
    <rect
       style="fill:#aecad8;fill-opacity:1;stroke:none;stroke-width:0.995687;stroke-linecap:square;stroke-linejoin:round;paint-order:stroke markers fill"
       id="rect941"
       width="210"
       height="148"
       x="0"
       y="5.5511151e-17"
       sodipodi:insensitive="true" />
    <g
       id="g982"
       transform="matrix(1.1335536,0.09916592,-0.09916592,1.1335536,-7.6588822,-27.609008)">
      <path
         style="fill:#38434a;fill-opacity:1;stroke:none;stroke-width:0.123333"
         d="m 116.16137,74.367082 c 0.008,2.819016 4.68479,2.813589 4.68664,0 0.8325,-0.04329 1.65747,-0.501964 1.90266,-1.35666 0.63738,-2.220852 -0.30069,-4.349328 0.91697,-6.536634 1.7538,-3.150658 4.49339,-5.857564 5.23819,-9.49662 1.24492,-6.08277 -4.39003,-11.797761 -10.27781,-11.839324 -5.86138,-0.04144 -11.7816,5.573652 -10.52447,11.715992 0.76306,3.728594 3.52978,6.518381 5.34401,9.743285 1.13601,2.019326 0.39503,4.028046 0.78106,6.166636 0.17649,0.977165 0.98494,1.553992 1.93275,1.603325"
         id="path937" />
      <path
         style="fill:#66bb6a;fill-opacity:1;stroke-width:0.123333"
         d="m 121.71573,66.874619 c 0.21504,-0.677272 1.1143,-2.206522 2.4246,-4.1232 2.82147,-4.127156 3.50356,-5.802313 3.24088,-7.959346 -0.21815,-1.791433 -0.56892,-2.768316 -1.47099,-4.096674 -0.8857,-1.304248 -2.00904,-2.283641 -3.39722,-2.961878 -1.58119,-0.772543 -2.26706,-0.931049 -4.00831,-0.926336 -1.72037,0.0047 -2.43084,0.164846 -3.91422,0.882538 -2.99244,1.447802 -4.96574,4.558105 -4.96574,7.826958 0,1.905499 0.52581,3.086304 3.09996,6.961643 1.70436,2.565877 2.69668,4.295805 2.69668,4.701148 0,0.123754 0.66079,0.157645 3.07376,0.157645 h 3.07375 z"
         id="path879" />
      <path
         style="fill:#ffffff;stroke:none;stroke-width:0.123333"
         d="m 124.6786,52.982175 c 1.09211,-0.418838 1.81521,1.547579 0.72594,1.92473 -1.00516,0.347922 -1.71988,-1.543509 -0.72594,-1.92473"
         id="path949" />
      <path
         style="fill:#ffffff;stroke:none;stroke-width:0.123333"
         d="m 120.2332,48.063049 c 1.38071,-0.07745 3.12648,1.806825 3.9184,2.747483 0.416,0.494071 0.74407,1.535369 -0.22212,1.673995 -0.43684,0.06265 -0.80919,-0.281815 -1.08718,-0.569427 -0.90674,-0.937699 -2.35812,-1.535369 -3.14659,-2.501804 -0.42155,-0.516518 -0.17944,-1.31004 0.53749,-1.350247"
         id="path947" />
      <path
         style="fill:#f1f2f2;fill-opacity:1;stroke:none;stroke-width:0.123333"
         d="m 119.36802,74.367082 c -0.23544,0.70941 -1.49122,0.70941 -1.72666,0 h 1.72666"
         id="path971" />
      <path
         style="fill:#f1f2f2;fill-opacity:1;stroke:none;stroke-width:0.123333"
         d="m 121.34134,71.653762 c -0.001,0.298959 0.0697,0.771693 -0.1977,0.983209 -0.69905,0.553024 -3.11193,0.126786 -3.99561,0.126786 -0.35347,0 -0.96915,0.112479 -1.26515,-0.126786 -0.26849,-0.217066 -0.21213,-0.678577 -0.21484,-0.983209 h 5.6733"
         id="path963" />
      <path
         style="fill:#f1f2f2;fill-opacity:1;stroke:none;stroke-width:0.123333"
         d="m 121.34134,68.940442 v 1.109995 h -5.6733 v -1.109995 h 5.6733"
         id="path955" />
    </g>
    <g
       id="g1154"
       transform="matrix(1.1110598,-0.24560926,0.24560926,1.1110598,-14.345345,5.2457324)">
      <path
         style="fill:#38434a;fill-opacity:1;stroke:none;stroke-width:0.123333"
         d="m 53.760431,71.721505 c 0.008,2.819016 4.68479,2.813589 4.68664,0 0.8325,-0.04329 1.65747,-0.501964 1.90266,-1.35666 0.63738,-2.220852 -0.30069,-4.349328 0.91697,-6.536634 1.7538,-3.150658 4.49339,-5.857564 5.23819,-9.49662 1.24492,-6.08277 -4.39003,-11.797761 -10.27781,-11.839324 -5.86138,-0.04144 -11.781604,5.573652 -10.524474,11.715992 0.76306,3.728594 3.52978,6.518381 5.344014,9.743285 1.13601,2.019326 0.39503,4.028046 0.78106,6.166636 0.17649,0.977165 0.98494,1.553992 1.93275,1.603325"
         id="path937-0-8" />
      <path
         style="fill:#ffee58;fill-opacity:1;stroke-width:0.123333"
         d="m 59.314791,64.229042 c 0.21504,-0.677272 1.1143,-2.206522 2.4246,-4.1232 2.82147,-4.127156 3.50355,-5.802313 3.24088,-7.959346 -0.21815,-1.791433 -0.56893,-2.768316 -1.47099,-4.096674 -0.8857,-1.304248 -2.00904,-2.283641 -3.39722,-2.961878 -1.58119,-0.772543 -2.26706,-0.931049 -4.00831,-0.926336 -1.72037,0.0047 -2.43084,0.164846 -3.91422,0.882538 -2.992444,1.447802 -4.965744,4.558105 -4.965744,7.826958 0,1.905499 0.52581,3.086304 3.099964,6.961643 1.70436,2.565877 2.69668,4.295805 2.69668,4.701148 0,0.123754 0.66079,0.157645 3.07376,0.157645 h 3.07375 z"
         id="path879-6-9" />
      <path
         style="fill:#ffffff;stroke:none;stroke-width:0.123333"
         d="m 62.277661,50.336598 c 1.09211,-0.418838 1.81521,1.547579 0.72594,1.92473 -1.00516,0.347922 -1.71988,-1.543509 -0.72594,-1.92473"
         id="path949-4-2" />
      <path
         style="fill:#ffffff;stroke:none;stroke-width:0.123333"
         d="m 57.832261,45.417472 c 1.38071,-0.07745 3.12648,1.806825 3.9184,2.747483 0.416,0.494071 0.74407,1.535369 -0.22212,1.673995 -0.43684,0.06265 -0.80919,-0.281815 -1.08718,-0.569427 -0.90674,-0.937699 -2.35812,-1.535369 -3.14659,-2.501804 -0.42155,-0.516518 -0.17944,-1.31004 0.53749,-1.350247"
         id="path947-6-0" />
      <path
         style="fill:#f1f2f2;fill-opacity:1;stroke:none;stroke-width:0.123333"
         d="m 56.967081,71.721505 c -0.23544,0.70941 -1.49122,0.70941 -1.72666,0 h 1.72666"
         id="path971-0-2" />
      <path
         style="fill:#f1f2f2;fill-opacity:1;stroke:none;stroke-width:0.123333"
         d="m 58.940401,69.008185 c -0.001,0.298959 0.0697,0.771693 -0.1977,0.983209 -0.69905,0.553024 -3.11193,0.126786 -3.99561,0.126786 -0.35347,0 -0.96915,0.112479 -1.26515,-0.126786 -0.26849,-0.217066 -0.21213,-0.678577 -0.21484,-0.983209 h 5.6733"
         id="path963-2-5" />
      <path
         style="fill:#f1f2f2;fill-opacity:1;stroke:none;stroke-width:0.123333"
         d="m 58.940401,66.294865 v 1.109995 h -5.6733 v -1.109995 h 5.6733"
         id="path955-7-9" />
    </g>
    <g
       id="g1145"
       transform="matrix(0.94693699,0.63094221,-0.63094221,0.94693699,46.312351,-91.388153)">
      <path
         style="fill:#38434a;fill-opacity:1;stroke:none;stroke-width:0.123333"
         d="m 145.96076,73.030637 c 0.008,2.819016 4.68479,2.813589 4.68664,0 0.8325,-0.04329 1.65747,-0.501964 1.90266,-1.35666 0.63738,-2.220852 -0.30069,-4.349328 0.91697,-6.536634 1.7538,-3.150658 4.49339,-5.857564 5.23819,-9.49662 1.24492,-6.08277 -4.39003,-11.797761 -10.27781,-11.839324 -5.86138,-0.04144 -11.7816,5.573652 -10.52447,11.715992 0.76306,3.728594 3.52978,6.518381 5.34401,9.743285 1.13601,2.019326 0.39503,4.028046 0.78106,6.166636 0.17649,0.977165 0.98494,1.553992 1.93275,1.603325"
         id="path937-0-8-6" />
      <path
         style="fill:#4fc3f7;fill-opacity:1;stroke-width:0.123333"
         d="m 151.51512,65.538174 c 0.21504,-0.677272 1.1143,-2.206522 2.4246,-4.1232 2.82147,-4.127156 3.50355,-5.802313 3.24088,-7.959346 -0.21815,-1.791433 -0.56893,-2.768316 -1.47099,-4.096674 -0.8857,-1.304248 -2.00904,-2.283641 -3.39722,-2.961878 -1.58119,-0.772543 -2.26706,-0.931049 -4.00831,-0.926336 -1.72037,0.0047 -2.43084,0.164846 -3.91422,0.882538 -2.99244,1.447802 -4.96574,4.558105 -4.96574,7.826958 0,1.905499 0.52581,3.086304 3.09996,6.961643 1.70436,2.565877 2.69668,4.295805 2.69668,4.701148 0,0.123754 0.66079,0.157645 3.07376,0.157645 h 3.07375 z"
         id="path879-6-9-5" />
      <path
         style="fill:#ffffff;stroke:none;stroke-width:0.123333"
         d="m 154.47799,51.64573 c 1.09211,-0.418838 1.81521,1.547579 0.72594,1.92473 -1.00516,0.347922 -1.71988,-1.543509 -0.72594,-1.92473"
         id="path949-4-2-4" />
      <path
         style="fill:#ffffff;stroke:none;stroke-width:0.123333"
         d="m 150.03259,46.726604 c 1.38071,-0.07745 3.12648,1.806825 3.9184,2.747483 0.416,0.494071 0.74407,1.535369 -0.22212,1.673995 -0.43684,0.06265 -0.80919,-0.281815 -1.08718,-0.569427 -0.90674,-0.937699 -2.35812,-1.535369 -3.14659,-2.501804 -0.42155,-0.516518 -0.17944,-1.31004 0.53749,-1.350247"
         id="path947-6-0-7" />
      <path
         style="fill:#f1f2f2;fill-opacity:1;stroke:none;stroke-width:0.123333"
         d="m 149.16741,73.030637 c -0.23544,0.70941 -1.49122,0.70941 -1.72666,0 h 1.72666"
         id="path971-0-2-6" />
      <path
         style="fill:#f1f2f2;fill-opacity:1;stroke:none;stroke-width:0.123333"
         d="m 151.14073,70.317317 c -0.001,0.298959 0.0697,0.771693 -0.1977,0.983209 -0.69905,0.553024 -3.11193,0.126786 -3.99561,0.126786 -0.35347,0 -0.96915,0.112479 -1.26515,-0.126786 -0.26849,-0.217066 -0.21213,-0.678577 -0.21484,-0.983209 h 5.6733"
         id="path963-2-5-9" />
      <path
         style="fill:#f1f2f2;fill-opacity:1;stroke:none;stroke-width:0.123333"
         d="m 151.14073,67.603997 v 1.109995 h -5.6733 v -1.109995 h 5.6733"
         id="path955-7-9-6" />
    </g>
    <text
       xml:space="preserve"
       style="font-style:normal;font-weight:normal;font-size:19.2681px;line-height:1.25;font-family:sans-serif;fill:#38434a;fill-opacity:1;stroke:none;stroke-width:0.367408"
       x="49.947903"
       y="94.206482"
       id="text1158"><tspan
         sodipodi:role="line"
         id="tspan1156"
         x="49.947903"
         y="94.206482"
         style="font-style:normal;font-variant:normal;font-weight:bold;font-stretch:normal;font-size:19.2681px;font-family:'Nirmala UI';-inkscape-font-specification:'Nirmala UI Bold';fill:#38434a;fill-opacity:1;stroke-width:0.367408">JavaScript</tspan></text>
    <text
       xml:space="preserve"
       style="font-style:normal;font-weight:normal;font-size:9.63408px;line-height:1.25;font-family:sans-serif;fill:#38434a;fill-opacity:1;stroke:none;stroke-width:0.303115"
       x="48.905449"
       y="107.14098"
       id="text1162"><tspan
         sodipodi:role="line"
         id="tspan1160"
         x="48.905449"
         y="107.14098"
         style="font-size:9.63408px;fill:#38434a;fill-opacity:1;stroke-width:0.303115">backendowców</tspan></text>
    <text
       xml:space="preserve"
       style="font-style:normal;font-weight:normal;font-size:9.63408px;line-height:1.25;font-family:sans-serif;fill:#38434a;fill-opacity:1;stroke:none;stroke-width:0.301064"
       x="145.59692"
       y="94.46888"
       id="text1168"><tspan
         sodipodi:role="line"
         id="tspan1166"
         x="145.59692"
         y="94.46888"
         style="font-size:9.63408px;fill:#38434a;fill-opacity:1;stroke-width:0.301064">dla</tspan></text>
    <path
       style="fill:#ffffff;stroke-width:0.0468606"
       d="m 155.54959,118.01251 c -1.22739,-0.19538 -2.23072,-0.91793 -2.74641,-1.97782 -0.18328,-0.37671 -0.20539,-0.4031 -0.3143,-0.37529 -0.2444,0.0625 -1.14422,0.0287 -1.45267,-0.0544 -1.17499,-0.3166 -2.04468,-1.1977 -2.41543,-2.44712 -0.15602,-0.52572 -0.17947,-1.31693 -0.0534,-1.80239 0.14394,-0.55446 0.46703,-1.13452 0.84303,-1.5135 0.18545,-0.18693 0.43746,-0.40258 0.56005,-0.47925 0.15671,-0.098 0.21382,-0.16028 0.19233,-0.20969 -0.27931,-0.64252 -0.36557,-1.57076 -0.21394,-2.30226 0.26072,-1.25771 1.14721,-2.37163 2.28975,-2.87717 0.53303,-0.23584 0.96877,-0.32071 1.63271,-0.31802 0.46942,10e-4 0.69461,0.0255 0.98154,0.10275 0.73313,0.1975 1.48772,0.64997 1.95997,1.17521 l 0.21852,0.24306 0.27943,-0.22597 c 0.70218,-0.56776 1.32826,-0.81297 2.16554,-0.84806 0.84069,-0.0353 1.49181,0.13973 2.15525,0.57921 0.34874,0.231 0.91735,0.80621 1.08134,1.09389 0.0753,0.13217 0.13038,0.1818 0.17907,0.16147 1.18227,-0.49367 2.56436,-0.44942 3.69176,0.11817 1.18662,0.59739 2.04179,1.68086 2.36089,2.99111 0.13886,0.57018 0.13989,1.46757 0.002,2.02786 -0.20414,0.83151 -0.57018,1.49892 -1.15293,2.10212 -0.56937,0.58937 -1.19136,0.96847 -1.98319,1.20873 -0.36324,0.11026 -0.49479,0.12546 -1.11474,0.12918 -0.38659,0.002 -0.75767,-0.0114 -0.82461,-0.03 -0.10924,-0.0307 -0.13998,-0.008 -0.3006,0.22551 -0.3822,0.55494 -1.05855,1.05154 -1.71629,1.26017 -0.75786,0.24039 -1.47141,0.1972 -2.3008,-0.1393 -0.0608,-0.0246 -0.0935,-10e-4 -0.12928,0.0931 -0.0762,0.20056 -0.44888,0.75423 -0.66645,0.99027 -0.41214,0.44713 -1.13541,0.86253 -1.77721,1.02074 -0.3733,0.0921 -1.09507,0.13119 -1.43124,0.0777 z m 3.30256,-5.65653 c 0.23493,-0.17164 0.33842,-0.52044 0.57075,-1.92354 l 0.0559,-0.33734 0.21875,-0.0141 c 0.20915,-0.0135 0.21941,-0.0208 0.23345,-0.16643 0.0145,-0.14991 0.0116,-0.15229 -0.18158,-0.15229 -0.19623,0 -0.19626,-4e-5 -0.16684,-0.1523 0.0398,-0.20599 0.19608,-0.32896 0.38942,-0.30638 0.13342,0.0156 0.15869,5.4e-4 0.20024,-0.11858 0.0645,-0.18524 0.0314,-0.21937 -0.21333,-0.21937 -0.42047,0 -0.68616,0.21936 -0.75207,0.6209 -0.0265,0.16117 -0.0414,0.17573 -0.1814,0.17573 -0.11859,0 -0.15885,0.0234 -0.18081,0.10548 -0.0505,0.18861 -0.0336,0.22258 0.11106,0.22258 0.0773,0 0.14058,0.0182 0.14058,0.0405 0,0.0989 -0.28883,1.63862 -0.3331,1.77573 -0.0587,0.18184 -0.18883,0.26223 -0.37921,0.23428 -0.11493,-0.0168 -0.14703,1.1e-4 -0.18397,0.0973 -0.0788,0.20698 -0.0224,0.25607 0.26634,0.23213 0.15521,-0.0129 0.30979,-0.0586 0.38587,-0.1142 z m -6.88035,-0.73366 c 0.19923,-0.0686 0.3765,-0.31851 0.3765,-0.53073 0,-0.23685 -0.19387,-0.41861 -0.60919,-0.57108 -0.32839,-0.12058 -0.35145,-0.13808 -0.35145,-0.2668 0,-0.23169 0.28008,-0.26795 0.72971,-0.0946 0.0787,0.0304 0.20801,-0.17973 0.15922,-0.25866 -0.0371,-0.06 -0.48061,-0.18534 -0.65142,-0.18412 -0.25705,0.001 -0.5375,0.16393 -0.61832,0.35738 -0.15192,0.36359 0.0179,0.62362 0.5033,0.77108 0.372,0.11299 0.49603,0.22127 0.41878,0.3656 -0.0927,0.17324 -0.41934,0.18574 -0.72235,0.0276 -0.18308,-0.0956 -0.20088,-0.0907 -0.25709,0.0706 -0.0457,0.13113 -0.0389,0.1459 0.10081,0.21871 0.29724,0.15484 0.64378,0.19054 0.92146,0.0949 z m 4.60403,-0.009 c 0.20848,-0.0326 0.23927,-0.0717 0.17983,-0.22798 -0.0437,-0.11506 -0.0546,-0.11774 -0.37009,-0.0913 -0.42102,0.0353 -0.55206,-10e-4 -0.66459,-0.1859 -0.18456,-0.3027 -0.16429,-0.31505 0.51675,-0.31505 h 0.60919 v -0.23581 c 0,-0.5953 -0.43227,-0.94198 -0.99052,-0.79438 -0.43148,0.11408 -0.69385,0.57504 -0.62787,1.10311 0.0534,0.42741 0.30713,0.70202 0.70761,0.76585 0.22888,0.0365 0.30091,0.0344 0.63969,-0.0185 z m -0.94729,-1.12944 c 0,-0.0155 0.0327,-0.0968 0.0726,-0.18095 0.0744,-0.15683 0.23349,-0.2596 0.40187,-0.2596 0.12405,0 0.36907,0.24649 0.36907,0.37128 0,0.0914 -0.0261,0.0973 -0.42175,0.0973 -0.23195,0 -0.42174,-0.0126 -0.42174,-0.0281 z m 2.49232,1.15109 c 0.2374,-0.066 0.41304,-0.28445 0.41304,-0.51384 0,-0.24987 -0.17003,-0.43848 -0.5057,-0.56089 -0.41129,-0.15 -0.47838,-0.19379 -0.47838,-0.3123 0,-0.20166 0.25852,-0.25803 0.61176,-0.1334 0.2127,0.075 0.24895,0.0625 0.29914,-0.10389 0.0392,-0.12969 -0.13341,-0.22911 -0.47662,-0.27465 -0.55931,-0.0742 -0.97178,0.31448 -0.79154,0.74587 0.0779,0.18653 0.20867,0.27517 0.55355,0.37536 0.40182,0.11671 0.51894,0.27805 0.30875,0.42528 -0.14289,0.10013 -0.3275,0.0915 -0.60603,-0.0284 -0.25553,-0.10992 -0.3185,-0.0839 -0.32003,0.1326 -5.5e-4,0.0971 0.0713,0.13819 0.46789,0.26658 0.12135,0.0393 0.34481,0.0315 0.52417,-0.0183 z m 3.06067,-0.0316 c 0.35488,-0.0928 0.56045,-0.47527 0.53143,-0.98871 -0.0324,-0.57312 -0.31793,-0.85249 -0.87133,-0.85249 -0.30141,0 -0.50721,0.10002 -0.67483,0.32802 -0.12939,0.17599 -0.19344,0.59881 -0.13216,0.8723 0.12517,0.55854 0.55131,0.79665 1.14689,0.64088 z m -0.56221,-0.35338 c -0.16531,-0.14256 -0.23001,-0.44419 -0.16374,-0.76338 0.0632,-0.30445 0.17982,-0.41771 0.43006,-0.41771 0.23774,0 0.38775,0.15791 0.43231,0.45511 0.067,0.44659 -0.13716,0.83141 -0.44102,0.83141 -0.0744,0 -0.19037,-0.0474 -0.25761,-0.10548 z m 3.93217,0.35821 c 0.0749,-0.0287 0.0958,-0.14212 0.0489,-0.26435 -0.019,-0.0494 -0.0892,-0.0608 -0.279,-0.0451 -0.34794,0.0288 -0.47948,-0.0139 -0.58726,-0.19063 -0.10707,-0.17569 -0.12471,-0.59919 -0.0325,-0.78366 0.094,-0.18811 0.34252,-0.28829 0.6291,-0.25358 0.23616,0.0286 0.24484,0.0255 0.27579,-0.0977 0.0388,-0.15458 -0.0132,-0.19376 -0.31186,-0.23483 -0.28927,-0.0398 -0.56876,0.0407 -0.77769,0.22426 -0.2215,0.19447 -0.297,0.38483 -0.297,0.7488 0,0.48439 0.2294,0.83045 0.61494,0.92766 0.1593,0.0402 0.5786,0.0222 0.71659,-0.0308 z m 1.5839,0.005 c 0.20847,-0.0325 0.23927,-0.0716 0.17983,-0.22796 -0.0438,-0.11507 -0.0546,-0.11775 -0.37009,-0.0913 -0.42102,0.0353 -0.55206,-0.001 -0.66459,-0.18589 -0.18456,-0.3027 -0.16429,-0.31506 0.51675,-0.31506 0.66909,0 0.62901,0.02 0.61155,-0.30459 -0.0295,-0.54689 -0.46623,-0.86642 -0.99117,-0.72507 -0.30453,0.082 -0.5332,0.33495 -0.60187,0.6658 -0.13235,0.63746 0.13838,1.11633 0.67988,1.20263 0.2289,0.0365 0.30093,0.0344 0.63971,-0.0185 z m -0.94729,-1.12942 c 0,-0.0155 0.0327,-0.0968 0.0726,-0.18095 0.0744,-0.15685 0.23349,-0.2596 0.40187,-0.2596 0.12404,0 0.36907,0.24649 0.36907,0.37128 0,0.0914 -0.0261,0.0973 -0.42175,0.0973 -0.23195,0 -0.42174,-0.0126 -0.42174,-0.0281 z m -11.15976,1.06271 c 0.10787,-0.0578 0.10912,-0.067 0.0933,-0.73068 -0.0141,-0.59102 -0.0278,-0.68816 -0.1131,-0.80439 -0.21008,-0.28615 -0.6077,-0.36716 -1.0937,-0.22283 -0.23339,0.0693 -0.24538,0.0803 -0.21606,0.19916 0.0444,0.17967 0.0932,0.21273 0.21652,0.14671 0.0596,-0.032 0.23237,-0.0602 0.38387,-0.0629 0.23615,-0.005 0.28825,0.0114 0.3652,0.10571 0.0494,0.0609 0.0898,0.14818 0.0898,0.19407 0,0.0727 -0.0437,0.0829 -0.33973,0.0794 -0.55955,-0.007 -0.8474,0.19938 -0.8474,0.60656 0,0.23827 0.11197,0.42275 0.31203,0.51388 0.18082,0.0824 0.98137,0.0652 1.14932,-0.0247 z m -0.9667,-0.26411 c -0.0727,-0.051 -0.10412,-0.12078 -0.10412,-0.23165 0,-0.21877 0.13498,-0.30459 0.47904,-0.30459 h 0.27074 v 0.27615 c 0,0.20859 -0.0182,0.28311 -0.0741,0.30459 -0.14024,0.0538 -0.46752,0.0283 -0.5715,-0.0445 z m 1.81713,-0.95799 v -1.31209 h -0.18744 -0.18744 v 1.31209 1.3121 h 0.18744 0.18744 z m 7.5522,0.67919 c 0.0179,-0.61027 0.0229,-0.63732 0.14235,-0.75676 0.0837,-0.0837 0.18173,-0.12737 0.30231,-0.1347 0.15168,-0.009 0.18745,-0.0329 0.23859,-0.15824 0.0518,-0.12692 0.0499,-0.15131 -0.013,-0.17545 -0.12561,-0.0482 -0.49001,0.0156 -0.58613,0.10252 -0.0885,0.0801 -0.0918,0.0794 -0.0918,-0.0207 0,-0.0913 -0.0212,-0.10207 -0.17573,-0.0893 l -0.17573,0.0146 -0.0127,0.9255 -0.0128,0.92549 h 0.18301 0.183 z"
       id="path1743" />
    <g
       id="g1841"
       transform="matrix(1.137883,0,0,1.137883,-12.908064,-12.212679)">
      <g
         id="g1092"
         transform="translate(-2.1306308,-5.2684199)">
        <path
           style="fill:#38434a;fill-opacity:1;stroke:none;stroke-width:0.123333"
           d="m 90.977195,73.030637 c 0.008,2.819016 4.68479,2.813589 4.68664,0 0.8325,-0.04329 1.65747,-0.501964 1.90266,-1.35666 0.63738,-2.220852 -0.30069,-4.349328 0.91697,-6.536634 1.753805,-3.150658 4.493395,-5.857564 5.238195,-9.49662 1.24492,-6.08277 -4.390035,-11.797761 -10.277815,-11.839324 -5.86138,-0.04144 -11.7816,5.573652 -10.52447,11.715992 0.76306,3.728594 3.52978,6.518381 5.34401,9.743285 1.13601,2.019326 0.39503,4.028046 0.78106,6.166636 0.17649,0.977165 0.98494,1.553992 1.93275,1.603325"
           id="path937-0" />
        <path
           style="fill:#ff7043;fill-opacity:1;stroke-width:0.123333"
           d="m 96.531555,65.538174 c 0.21504,-0.677272 1.1143,-2.206522 2.4246,-4.1232 2.821475,-4.127156 3.503555,-5.802313 3.240885,-7.959346 -0.21815,-1.791433 -0.56893,-2.768316 -1.47099,-4.096674 -0.885705,-1.304248 -2.009045,-2.283641 -3.397225,-2.961878 -1.58119,-0.772543 -2.26706,-0.931049 -4.00831,-0.926336 -1.72037,0.0047 -2.43084,0.164846 -3.91422,0.882538 -2.99244,1.447802 -4.96574,4.558105 -4.96574,7.826958 0,1.905499 0.52581,3.086304 3.09996,6.961643 1.70436,2.565877 2.69668,4.295805 2.69668,4.701148 0,0.123754 0.66079,0.157645 3.07376,0.157645 h 3.07375 z"
           id="path879-6" />
        <path
           style="fill:#ffffff;stroke:none;stroke-width:0.123333"
           d="m 99.494425,51.64573 c 1.092115,-0.418838 1.815215,1.547579 0.725945,1.92473 -1.005165,0.347922 -1.719885,-1.543509 -0.725945,-1.92473"
           id="path949-4" />
        <path
           style="fill:#ffffff;stroke:none;stroke-width:0.123333"
           d="m 95.049025,46.726604 c 1.38071,-0.07745 3.12648,1.806825 3.9184,2.747483 0.416,0.494071 0.74407,1.535369 -0.22212,1.673995 -0.43684,0.06265 -0.80919,-0.281815 -1.08718,-0.569427 -0.90674,-0.937699 -2.35812,-1.535369 -3.14659,-2.501804 -0.42155,-0.516518 -0.17944,-1.31004 0.53749,-1.350247"
           id="path947-6" />
        <path
           style="fill:#f1f2f2;fill-opacity:1;stroke:none;stroke-width:0.123333"
           d="m 94.183845,73.030637 c -0.23544,0.70941 -1.49122,0.70941 -1.72666,0 h 1.72666"
           id="path971-0" />
        <path
           style="fill:#f1f2f2;fill-opacity:1;stroke:none;stroke-width:0.123333"
           d="m 96.157165,70.317317 c -0.001,0.298959 0.0697,0.771693 -0.1977,0.983209 -0.69905,0.553024 -3.11193,0.126786 -3.99561,0.126786 -0.35347,0 -0.96915,0.112479 -1.26515,-0.126786 -0.26849,-0.217066 -0.21213,-0.678577 -0.21484,-0.983209 h 5.6733"
           id="path963-2" />
        <path
           style="fill:#f1f2f2;fill-opacity:1;stroke:none;stroke-width:0.123333"
           d="m 96.157165,67.603997 v 1.109995 h -5.6733 v -1.109995 h 5.6733"
           id="path955-7" />
      </g>
      <path
         style="fill:#ffffff;stroke:#ffffff;stroke-width:1;stroke-linecap:butt;stroke-linejoin:round;stroke-miterlimit:4;stroke-dasharray:none;stroke-opacity:1"
         d="m 75.001188,32.59769 5.83048,5.300435"
         id="path1767"
         sodipodi:nodetypes="cc" />
      <path
         style="fill:#ffffff;stroke:#ffffff;stroke-width:1;stroke-linecap:butt;stroke-linejoin:miter;stroke-miterlimit:4;stroke-dasharray:none;stroke-opacity:1"
         d="m 105.98513,30.296147 -4.74666,6.289535"
         id="path1767-1"
         sodipodi:nodetypes="cc" />
      <path
         style="fill:#ffffff;stroke:#ffffff;stroke-width:1;stroke-linecap:butt;stroke-linejoin:round;stroke-miterlimit:4;stroke-dasharray:none;stroke-opacity:1"
         d="m 84.469539,26.507089 2.200448,7.566183"
         id="path1767-4"
         sodipodi:nodetypes="cc" />
      <path
         style="fill:#ffffff;stroke:#ffffff;stroke-width:1;stroke-linecap:butt;stroke-linejoin:miter;stroke-miterlimit:4;stroke-dasharray:none;stroke-opacity:1"
         d="m 96.096243,26.063482 -2.27304,7.544693"
         id="path1767-1-9"
         sodipodi:nodetypes="cc" />
    </g>
    <text
       xml:space="preserve"
       style="font-style:normal;font-weight:normal;font-size:8.0284px;line-height:1.25;font-family:sans-serif;fill:#000000;fill-opacity:1;stroke:none;stroke-width:0.301064"
       x="140.3557"
       y="86.480179"
       id="text1845"
       transform="rotate(8.9332489)"><tspan
         sodipodi:role="line"
         id="tspan1843"
         x="140.3557"
         y="86.480179"
         style="font-size:8.0284px;fill:#ffffff;stroke-width:0.301064">w -&gt;</tspan></text>
    <text
       xml:space="preserve"
       style="font-style:normal;font-weight:normal;font-size:12.0426px;line-height:1.25;font-family:sans-serif;fill:#38434a;fill-opacity:1;stroke:none;stroke-width:0.301064"
       x="49.776997"
       y="108.55359"
       id="text1943"><tspan
         sodipodi:role="line"
         id="tspan1941"
         x="49.776997"
         y="108.55359"
         style="fill:#38434a;fill-opacity:1;stroke-width:0.301064" /><tspan
         sodipodi:role="line"
         x="49.776997"
         y="123.60684"
         style="font-style:normal;font-variant:normal;font-weight:normal;font-stretch:normal;font-size:5.61988px;font-family:'Nirmala UI';-inkscape-font-specification:'Nirmala UI';fill:#38434a;fill-opacity:1;stroke-width:0.301064"
         id="tspan1945">by Piotr Bokiej</tspan></text>
  </g>
</svg>
